<mxfile modified="2019-11-14T02:54:01.058Z" host="www.draw.io" agent="Mozilla/5.0 (Windows NT 10.0; Win64; x64) AppleWebKit/537.36 (KHTML, like Gecko) Chrome/78.0.3904.87 Safari/537.36" etag="YjkpKkrE7ba2WEnJzF_J" version="12.2.6" type="github" pages="1">
  <diagram id="bWVcxrP--I-IE7CFp9__" name="Page-1">
    <mxGraphModel dx="1761" dy="495" grid="1" gridSize="10" guides="1" tooltips="1" connect="1" arrows="1" fold="1" page="1" pageScale="1" pageWidth="827" pageHeight="1169" math="0" shadow="0">
      <root>
        <mxCell id="0"/>
        <mxCell id="1" parent="0"/>
        <mxCell id="DXDvnGgLbOSp8ml0pq9N-5" value="" style="rounded=0;whiteSpace=wrap;html=1;" parent="1" vertex="1">
          <mxGeometry x="78" y="130" width="632" height="330" as="geometry"/>
        </mxCell>
        <mxCell id="edI38zmc0wJtxJQBAjms-4" value="" style="rounded=0;whiteSpace=wrap;html=1;fontSize=6;" vertex="1" parent="1">
          <mxGeometry x="80" y="10" width="260" height="70" as="geometry"/>
        </mxCell>
        <mxCell id="DXDvnGgLbOSp8ml0pq9N-2" value="广东省高性能数据中心" style="rounded=0;whiteSpace=wrap;html=1;fillColor=#dae8fc;strokeColor=#6c8ebf;fontSize=17;fontStyle=1;" parent="1" vertex="1">
          <mxGeometry x="89" y="660" width="632" height="140" as="geometry"/>
        </mxCell>
        <mxCell id="DXDvnGgLbOSp8ml0pq9N-3" value="逻&lt;br&gt;辑&lt;br&gt;层" style="rounded=0;whiteSpace=wrap;html=1;fillColor=#f5f5f5;strokeColor=#666666;fontColor=#333333;fontSize=17;fontStyle=0;" parent="1" vertex="1">
          <mxGeometry x="770" y="460" width="50" height="80" as="geometry"/>
        </mxCell>
        <mxCell id="DXDvnGgLbOSp8ml0pq9N-4" value="表&lt;br&gt;示&lt;br&gt;层" style="rounded=0;whiteSpace=wrap;html=1;fillColor=#f5f5f5;strokeColor=#666666;fontColor=#333333;fontSize=17;fontStyle=0;" parent="1" vertex="1">
          <mxGeometry x="770" y="120" width="50" height="340" as="geometry"/>
        </mxCell>
        <mxCell id="DXDvnGgLbOSp8ml0pq9N-6" value="原内管系统界面" style="rounded=0;whiteSpace=wrap;html=1;fillColor=#dae8fc;strokeColor=#6c8ebf;" parent="1" vertex="1">
          <mxGeometry x="78" y="120" width="632" height="30" as="geometry"/>
        </mxCell>
        <mxCell id="DXDvnGgLbOSp8ml0pq9N-7" value="" style="rounded=0;whiteSpace=wrap;html=1;fillColor=#d5e8d4;strokeColor=#82b366;" parent="1" vertex="1">
          <mxGeometry x="90" y="20" width="40" height="20" as="geometry"/>
        </mxCell>
        <mxCell id="DXDvnGgLbOSp8ml0pq9N-9" value="卷烟经营监管" style="rounded=0;whiteSpace=wrap;html=1;fillColor=#d5e8d4;strokeColor=#82b366;fontSize=12;" parent="1" vertex="1">
          <mxGeometry x="78" y="190" width="142" height="30" as="geometry"/>
        </mxCell>
        <mxCell id="DXDvnGgLbOSp8ml0pq9N-10" value="销售环节监管" style="rounded=0;whiteSpace=wrap;html=1;" parent="1" vertex="1">
          <mxGeometry x="-79" y="155" width="120" height="30" as="geometry"/>
        </mxCell>
        <mxCell id="DXDvnGgLbOSp8ml0pq9N-11" value="其他内管功能" style="rounded=0;whiteSpace=wrap;html=1;" parent="1" vertex="1">
          <mxGeometry x="-130" y="205" width="120" height="30" as="geometry"/>
        </mxCell>
        <mxCell id="DXDvnGgLbOSp8ml0pq9N-12" value="内管知识库" style="rounded=0;whiteSpace=wrap;html=1;fillColor=#ffe6cc;strokeColor=#d79b00;" parent="1" vertex="1">
          <mxGeometry x="-130" y="235" width="120" height="30" as="geometry"/>
        </mxCell>
        <mxCell id="DXDvnGgLbOSp8ml0pq9N-16" value="导航栏" style="rounded=0;whiteSpace=wrap;html=1;fillColor=#dae8fc;strokeColor=#6c8ebf;fontSize=12;" parent="1" vertex="1">
          <mxGeometry x="78" y="150" width="142" height="40" as="geometry"/>
        </mxCell>
        <mxCell id="DXDvnGgLbOSp8ml0pq9N-13" value="零售客户社会关系网络分析" style="rounded=0;whiteSpace=wrap;html=1;fillColor=#f8cecc;strokeColor=#b85450;fontSize=12;" parent="1" vertex="1">
          <mxGeometry x="98" y="220" width="122" height="30" as="geometry"/>
        </mxCell>
        <mxCell id="DXDvnGgLbOSp8ml0pq9N-14" value="自动市场分析报告" style="rounded=0;whiteSpace=wrap;html=1;fillColor=#ffe6cc;strokeColor=#d79b00;" parent="1" vertex="1">
          <mxGeometry x="-100" y="440" width="120" height="30" as="geometry"/>
        </mxCell>
        <mxCell id="DXDvnGgLbOSp8ml0pq9N-15" value="市场检查工作" style="rounded=0;whiteSpace=wrap;html=1;fillColor=#ffe6cc;strokeColor=#d79b00;" parent="1" vertex="1">
          <mxGeometry x="-100" y="470" width="120" height="30" as="geometry"/>
        </mxCell>
        <mxCell id="DXDvnGgLbOSp8ml0pq9N-19" value="内管预警" style="rounded=0;whiteSpace=wrap;html=1;fillColor=#ffe6cc;strokeColor=#d79b00;" parent="1" vertex="1">
          <mxGeometry x="-100" y="500" width="120" height="30" as="geometry"/>
        </mxCell>
        <mxCell id="DXDvnGgLbOSp8ml0pq9N-20" value="智能审账结果" style="rounded=0;whiteSpace=wrap;html=1;fillColor=#ffe6cc;strokeColor=#d79b00;" parent="1" vertex="1">
          <mxGeometry x="-100" y="530" width="120" height="30" as="geometry"/>
        </mxCell>
        <mxCell id="DXDvnGgLbOSp8ml0pq9N-21" value="内管工作&lt;br&gt;知识图谱功能" style="rounded=0;whiteSpace=wrap;html=1;fillColor=#fff2cc;strokeColor=#d6b656;" parent="1" vertex="1">
          <mxGeometry x="240" y="170" width="130" height="130" as="geometry"/>
        </mxCell>
        <mxCell id="DXDvnGgLbOSp8ml0pq9N-23" value="大户小户识别与&lt;br&gt;控制功能" style="rounded=0;whiteSpace=wrap;html=1;fillColor=#fff2cc;strokeColor=#d6b656;" parent="1" vertex="1">
          <mxGeometry x="400" y="170" width="130" height="130" as="geometry"/>
        </mxCell>
        <mxCell id="DXDvnGgLbOSp8ml0pq9N-24" value="自动市场&lt;br&gt;分析报告" style="rounded=0;whiteSpace=wrap;html=1;fillColor=#fff2cc;strokeColor=#d6b656;" parent="1" vertex="1">
          <mxGeometry x="560" y="170" width="130" height="130" as="geometry"/>
        </mxCell>
        <mxCell id="DXDvnGgLbOSp8ml0pq9N-26" value="市场检查&lt;br&gt;路径规划" style="rounded=0;whiteSpace=wrap;html=1;fillColor=#fff2cc;strokeColor=#d6b656;" parent="1" vertex="1">
          <mxGeometry x="240" y="320" width="130" height="130" as="geometry"/>
        </mxCell>
        <mxCell id="DXDvnGgLbOSp8ml0pq9N-27" value="预警处理&lt;br&gt;智能助手" style="rounded=0;whiteSpace=wrap;html=1;fillColor=#fff2cc;strokeColor=#d6b656;" parent="1" vertex="1">
          <mxGeometry x="400" y="320" width="130" height="130" as="geometry"/>
        </mxCell>
        <mxCell id="DXDvnGgLbOSp8ml0pq9N-28" value="勾稽关系与&lt;br&gt;捆绑销售情况&lt;br&gt;智能审账" style="rounded=0;whiteSpace=wrap;html=1;fillColor=#fff2cc;strokeColor=#d6b656;" parent="1" vertex="1">
          <mxGeometry x="560" y="320" width="130" height="130" as="geometry"/>
        </mxCell>
        <mxCell id="DXDvnGgLbOSp8ml0pq9N-33" value="内管规章接口" style="rounded=0;whiteSpace=wrap;html=1;fillColor=#e1d5e7;strokeColor=#9673a6;fontSize=8;" parent="1" vertex="1">
          <mxGeometry x="28" y="590" width="100" height="30" as="geometry"/>
        </mxCell>
        <mxCell id="DXDvnGgLbOSp8ml0pq9N-48" value="专卖数据接口" style="rounded=0;whiteSpace=wrap;html=1;fillColor=#e1d5e7;strokeColor=#9673a6;fontSize=8;" parent="1" vertex="1">
          <mxGeometry x="28" y="620" width="100" height="30" as="geometry"/>
        </mxCell>
        <mxCell id="DXDvnGgLbOSp8ml0pq9N-49" value="营销数据接口" style="rounded=0;whiteSpace=wrap;html=1;fillColor=#e1d5e7;strokeColor=#9673a6;fontSize=8;" parent="1" vertex="1">
          <mxGeometry x="28" y="740" width="100" height="30" as="geometry"/>
        </mxCell>
        <mxCell id="DXDvnGgLbOSp8ml0pq9N-50" value="市场门店据接口" style="rounded=0;whiteSpace=wrap;html=1;fillColor=#e1d5e7;strokeColor=#9673a6;fontSize=8;" parent="1" vertex="1">
          <mxGeometry x="28" y="650" width="100" height="30" as="geometry"/>
        </mxCell>
        <mxCell id="DXDvnGgLbOSp8ml0pq9N-51" value="&lt;span style=&quot;font-size: 8px; white-space: normal;&quot;&gt;预警相关数据&lt;/span&gt;" style="rounded=0;whiteSpace=wrap;html=1;fillColor=#e1d5e7;strokeColor=#9673a6;fontSize=8;" parent="1" vertex="1">
          <mxGeometry x="28" y="680" width="100" height="30" as="geometry"/>
        </mxCell>
        <mxCell id="DXDvnGgLbOSp8ml0pq9N-52" value="&lt;span style=&quot;font-size: 6px;&quot;&gt;会计账目接口&lt;/span&gt;" style="rounded=0;whiteSpace=wrap;html=1;fillColor=#e1d5e7;strokeColor=#9673a6;fontSize=6;" parent="1" vertex="1">
          <mxGeometry x="28" y="710" width="100" height="30" as="geometry"/>
        </mxCell>
        <mxCell id="DXDvnGgLbOSp8ml0pq9N-62" style="edgeStyle=orthogonalEdgeStyle;rounded=0;orthogonalLoop=1;jettySize=auto;html=1;exitX=1;exitY=0.5;exitDx=0;exitDy=0;entryX=1;entryY=0.5;entryDx=0;entryDy=0;" parent="1" source="DXDvnGgLbOSp8ml0pq9N-61" target="edI38zmc0wJtxJQBAjms-1" edge="1">
          <mxGeometry relative="1" as="geometry"/>
        </mxCell>
        <mxCell id="DXDvnGgLbOSp8ml0pq9N-61" value="新&lt;br&gt;功&lt;br&gt;能&lt;br&gt;产&lt;br&gt;生&lt;br&gt;数&lt;br&gt;据" style="rounded=0;whiteSpace=wrap;html=1;fillColor=#e1d5e7;strokeColor=#9673a6;" parent="1" vertex="1">
          <mxGeometry x="700" y="280" width="40" height="170" as="geometry"/>
        </mxCell>
        <mxCell id="DXDvnGgLbOSp8ml0pq9N-67" value="数&lt;br&gt;据&lt;br&gt;层" style="rounded=0;whiteSpace=wrap;html=1;fillColor=#f5f5f5;strokeColor=#666666;fontColor=#333333;fontSize=17;fontStyle=0;" parent="1" vertex="1">
          <mxGeometry x="770" y="540" width="50" height="140" as="geometry"/>
        </mxCell>
        <mxCell id="edI38zmc0wJtxJQBAjms-1" value="内管平台自有数据库" style="rounded=0;whiteSpace=wrap;html=1;fillColor=#dae8fc;strokeColor=#6c8ebf;fontSize=17;fontStyle=1;" vertex="1" parent="1">
          <mxGeometry x="405" y="540" width="310" height="80" as="geometry"/>
        </mxCell>
        <mxCell id="DXDvnGgLbOSp8ml0pq9N-1" value="内管平台" style="rounded=0;whiteSpace=wrap;html=1;fillColor=#dae8fc;strokeColor=#6c8ebf;fontSize=17;fontStyle=1;" parent="1" vertex="1">
          <mxGeometry x="78" y="520" width="322" height="80" as="geometry"/>
        </mxCell>
        <mxCell id="edI38zmc0wJtxJQBAjms-2" value="" style="rounded=0;whiteSpace=wrap;html=1;fontSize=6;" vertex="1" parent="1">
          <mxGeometry x="-130" y="265" width="120" height="30" as="geometry"/>
        </mxCell>
        <mxCell id="edI38zmc0wJtxJQBAjms-8" value="原功能" style="rounded=0;whiteSpace=wrap;html=1;fillColor=none;strokeColor=none;" vertex="1" parent="1">
          <mxGeometry x="140" y="20" width="70" height="20" as="geometry"/>
        </mxCell>
        <mxCell id="edI38zmc0wJtxJQBAjms-9" value="" style="rounded=0;whiteSpace=wrap;html=1;fillColor=#f8cecc;strokeColor=#b85450;" vertex="1" parent="1">
          <mxGeometry x="90" y="50" width="40" height="20" as="geometry"/>
        </mxCell>
        <mxCell id="edI38zmc0wJtxJQBAjms-10" value="新增功能" style="rounded=0;whiteSpace=wrap;html=1;strokeColor=none;fillColor=none;" vertex="1" parent="1">
          <mxGeometry x="140" y="50" width="70" height="20" as="geometry"/>
        </mxCell>
        <mxCell id="edI38zmc0wJtxJQBAjms-11" value="" style="rounded=0;whiteSpace=wrap;html=1;fillColor=#f8cecc;fontSize=12;strokeColor=#b85450;" vertex="1" parent="1">
          <mxGeometry x="78" y="220" width="20" height="30" as="geometry"/>
        </mxCell>
        <mxCell id="edI38zmc0wJtxJQBAjms-13" value="" style="shape=image;html=1;verticalAlign=top;verticalLabelPosition=bottom;labelBackgroundColor=#ffffff;imageAspect=0;aspect=fixed;image=https://cdn4.iconfinder.com/data/icons/ionicons/512/icon-chevron-down-128.png;fillColor=none;fontSize=12;" vertex="1" parent="1">
          <mxGeometry x="81" y="228" width="14" height="14" as="geometry"/>
        </mxCell>
        <mxCell id="edI38zmc0wJtxJQBAjms-16" value="" style="rounded=0;whiteSpace=wrap;html=1;fillColor=#f8cecc;strokeColor=#b85450;fontSize=12;" vertex="1" parent="1">
          <mxGeometry x="-81" y="250" width="142" height="30" as="geometry"/>
        </mxCell>
        <mxCell id="edI38zmc0wJtxJQBAjms-22" value="真烟非法流通治理" style="rounded=0;whiteSpace=wrap;html=1;fillColor=#d5e8d4;strokeColor=#82b366;" vertex="1" parent="1">
          <mxGeometry x="78" y="370" width="142" height="30" as="geometry"/>
        </mxCell>
        <mxCell id="edI38zmc0wJtxJQBAjms-23" value="预警处理智能助手" style="rounded=0;whiteSpace=wrap;html=1;fillColor=#fff2cc;strokeColor=#d6b656;fontSize=12;" vertex="1" parent="1">
          <mxGeometry x="78" y="280" width="142" height="30" as="geometry"/>
        </mxCell>
        <mxCell id="edI38zmc0wJtxJQBAjms-24" value="" style="rounded=0;whiteSpace=wrap;html=1;fillColor=#ffe6cc;strokeColor=#d79b00;" vertex="1" parent="1">
          <mxGeometry x="220" y="20" width="40" height="20" as="geometry"/>
        </mxCell>
        <mxCell id="edI38zmc0wJtxJQBAjms-25" value="功能优化" style="rounded=0;whiteSpace=wrap;html=1;fillColor=none;strokeColor=none;" vertex="1" parent="1">
          <mxGeometry x="270" y="20" width="70" height="20" as="geometry"/>
        </mxCell>
        <mxCell id="edI38zmc0wJtxJQBAjms-26" value="" style="rounded=0;whiteSpace=wrap;html=1;fillColor=#f8cecc;fontSize=12;strokeColor=#b85450;" vertex="1" parent="1">
          <mxGeometry x="220" y="50" width="20" height="20" as="geometry"/>
        </mxCell>
        <mxCell id="edI38zmc0wJtxJQBAjms-27" value="" style="shape=image;html=1;verticalAlign=top;verticalLabelPosition=bottom;labelBackgroundColor=#ffffff;imageAspect=0;aspect=fixed;image=https://cdn4.iconfinder.com/data/icons/ionicons/512/icon-chevron-down-128.png;fillColor=none;fontSize=12;" vertex="1" parent="1">
          <mxGeometry x="223" y="53" width="14" height="14" as="geometry"/>
        </mxCell>
        <mxCell id="edI38zmc0wJtxJQBAjms-28" value="下拉菜单" style="rounded=0;whiteSpace=wrap;html=1;fillColor=none;strokeColor=none;" vertex="1" parent="1">
          <mxGeometry x="270" y="50" width="70" height="20" as="geometry"/>
        </mxCell>
        <mxCell id="edI38zmc0wJtxJQBAjms-29" value="直营店" style="rounded=0;whiteSpace=wrap;html=1;fillColor=#d5e8d4;strokeColor=#82b366;fontSize=12;" vertex="1" parent="1">
          <mxGeometry x="78" y="310" width="142" height="30" as="geometry"/>
        </mxCell>
        <mxCell id="edI38zmc0wJtxJQBAjms-32" value="&lt;span style=&quot;font-size: 12px;&quot;&gt;市场检查APP&lt;/span&gt;" style="rounded=0;whiteSpace=wrap;html=1;fillColor=#f8cecc;strokeColor=#b85450;fontSize=12;" vertex="1" parent="1">
          <mxGeometry x="98" y="250" width="122" height="30" as="geometry"/>
        </mxCell>
        <mxCell id="edI38zmc0wJtxJQBAjms-33" value="" style="rounded=0;whiteSpace=wrap;html=1;fillColor=#f8cecc;fontSize=12;strokeColor=#b85450;" vertex="1" parent="1">
          <mxGeometry x="78" y="250" width="20" height="30" as="geometry"/>
        </mxCell>
        <mxCell id="edI38zmc0wJtxJQBAjms-34" value="" style="shape=image;html=1;verticalAlign=top;verticalLabelPosition=bottom;labelBackgroundColor=#ffffff;imageAspect=0;aspect=fixed;image=https://cdn4.iconfinder.com/data/icons/ionicons/512/icon-chevron-down-128.png;fillColor=none;fontSize=12;" vertex="1" parent="1">
          <mxGeometry x="81" y="258" width="14" height="14" as="geometry"/>
        </mxCell>
        <mxCell id="edI38zmc0wJtxJQBAjms-35" value="&lt;span style=&quot;font-size: 12px;&quot;&gt;智能审账&lt;/span&gt;" style="rounded=0;whiteSpace=wrap;html=1;fillColor=#f8cecc;strokeColor=#b85450;fontSize=12;" vertex="1" parent="1">
          <mxGeometry x="98" y="340" width="122" height="30" as="geometry"/>
        </mxCell>
        <mxCell id="edI38zmc0wJtxJQBAjms-37" value="" style="rounded=0;whiteSpace=wrap;html=1;fillColor=#f8cecc;fontSize=12;strokeColor=#b85450;" vertex="1" parent="1">
          <mxGeometry x="78" y="340" width="20" height="30" as="geometry"/>
        </mxCell>
        <mxCell id="edI38zmc0wJtxJQBAjms-36" value="" style="shape=image;html=1;verticalAlign=top;verticalLabelPosition=bottom;labelBackgroundColor=#ffffff;imageAspect=0;aspect=fixed;image=https://cdn4.iconfinder.com/data/icons/ionicons/512/icon-chevron-down-128.png;fillColor=none;fontSize=12;" vertex="1" parent="1">
          <mxGeometry x="81" y="348" width="14" height="14" as="geometry"/>
        </mxCell>
        <mxCell id="edI38zmc0wJtxJQBAjms-38" value="&lt;span style=&quot;font-size: 12px&quot;&gt;市场分析报告生成&lt;/span&gt;" style="rounded=0;whiteSpace=wrap;html=1;fillColor=#f8cecc;strokeColor=#b85450;fontSize=12;" vertex="1" parent="1">
          <mxGeometry x="98" y="400" width="122" height="30" as="geometry"/>
        </mxCell>
        <mxCell id="edI38zmc0wJtxJQBAjms-39" value="" style="rounded=0;whiteSpace=wrap;html=1;fillColor=#f8cecc;fontSize=12;strokeColor=#b85450;" vertex="1" parent="1">
          <mxGeometry x="78" y="400" width="20" height="30" as="geometry"/>
        </mxCell>
        <mxCell id="edI38zmc0wJtxJQBAjms-40" value="" style="shape=image;html=1;verticalAlign=top;verticalLabelPosition=bottom;labelBackgroundColor=#ffffff;imageAspect=0;aspect=fixed;image=https://cdn4.iconfinder.com/data/icons/ionicons/512/icon-chevron-down-128.png;fillColor=none;fontSize=12;" vertex="1" parent="1">
          <mxGeometry x="81" y="408" width="14" height="14" as="geometry"/>
        </mxCell>
        <mxCell id="edI38zmc0wJtxJQBAjms-41" value="&lt;span style=&quot;font-size: 12px&quot;&gt;内管工作知识图谱&lt;/span&gt;" style="rounded=0;whiteSpace=wrap;html=1;fillColor=#f8cecc;strokeColor=#b85450;fontSize=12;" vertex="1" parent="1">
          <mxGeometry x="78" y="430" width="142" height="30" as="geometry"/>
        </mxCell>
      </root>
    </mxGraphModel>
  </diagram>
</mxfile>
